<svg width="32" height="32" viewBox="0 0 32 32" fill="none" xmlns="http://www.w3.org/2000/svg">
<path d="M17.3337 21.3333V22.6667C17.3337 23.7275 16.9123 24.745 16.1621 25.4951C15.412 26.2452 14.3946 26.6667 13.3337 26.6667H8.00037C6.9395 26.6667 5.92208 26.2452 5.17194 25.4951C4.42179 24.745 4.00037 23.7275 4.00037 22.6667V9.33334C4.00037 8.27248 4.42179 7.25506 5.17194 6.50492C5.92208 5.75477 6.9395 5.33334 8.00037 5.33334H13.3337C14.3946 5.33334 15.412 5.75477 16.1621 6.50492C16.9123 7.25506 17.3337 8.27248 17.3337 9.33334V10.6667M22.667 21.3333L28.0004 16L22.667 21.3333ZM28.0004 16L22.667 10.6667L28.0004 16ZM28.0004 16H9.3337H28.0004Z" stroke="#D36363" stroke-width="2" stroke-linecap="round" stroke-linejoin="round"/>
</svg>
