<svg width="30" height="30" viewBox="0 0 30 30" fill="none" xmlns="http://www.w3.org/2000/svg">
<path fill-rule="evenodd" clip-rule="evenodd" d="M6 6C5.20435 6 4.44129 6.31607 3.87868 6.87868C3.31607 7.44129 3 8.20435 3 9V15C3 15.7956 3.31607 16.5587 3.87868 17.1213C4.44129 17.6839 5.20435 18 6 18V9H21C21 8.20435 20.6839 7.44129 20.1213 6.87868C19.5587 6.31607 18.7956 6 18 6H6ZM9 15C9 14.2044 9.31607 13.4413 9.87868 12.8787C10.4413 12.3161 11.2044 12 12 12H24C24.7956 12 25.5587 12.3161 26.1213 12.8787C26.6839 13.4413 27 14.2044 27 15V21C27 21.7956 26.6839 22.5587 26.1213 23.1213C25.5587 23.6839 24.7956 24 24 24H12C11.2044 24 10.4413 23.6839 9.87868 23.1213C9.31607 22.5587 9 21.7956 9 21V15ZM18 21C18.7956 21 19.5587 20.6839 20.1213 20.1213C20.6839 19.5587 21 18.7956 21 18C21 17.2044 20.6839 16.4413 20.1213 15.8787C19.5587 15.3161 18.7956 15 18 15C17.2044 15 16.4413 15.3161 15.8787 15.8787C15.3161 16.4413 15 17.2044 15 18C15 18.7956 15.3161 19.5587 15.8787 20.1213C16.4413 20.6839 17.2044 21 18 21Z" fill="white"/>
</svg>
