<svg width="30" height="30" viewBox="0 0 30 30" fill="none" xmlns="http://www.w3.org/2000/svg">
<path fill-rule="evenodd" clip-rule="evenodd" d="M18 10.5184C17.6022 10.5184 17.2206 10.3604 16.9393 10.0791C16.658 9.79779 16.5 9.41626 16.5 9.01843C16.5 8.62061 16.658 8.23908 16.9393 7.95777C17.2206 7.67647 17.6022 7.51843 18 7.51843H25.5C25.8978 7.51843 26.2794 7.67647 26.5607 7.95777C26.842 8.23908 27 8.62061 27 9.01843V16.5184C27 16.9163 26.842 17.2978 26.5607 17.5791C26.2794 17.8604 25.8978 18.0184 25.5 18.0184C25.1022 18.0184 24.7206 17.8604 24.4393 17.5791C24.158 17.2978 24 16.9163 24 16.5184V12.6394L17.5605 19.0789C17.2792 19.3601 16.8977 19.5181 16.5 19.5181C16.1023 19.5181 15.7208 19.3601 15.4395 19.0789L12 15.6394L5.5605 22.0789C5.2776 22.3522 4.89869 22.5034 4.5054 22.4999C4.1121 22.4965 3.73588 22.3388 3.45777 22.0607C3.17966 21.7825 3.02191 21.4063 3.01849 21.013C3.01507 20.6197 3.16626 20.2408 3.4395 19.9579L10.9395 12.4579C11.2208 12.1767 11.6023 12.0188 12 12.0188C12.3977 12.0188 12.7792 12.1767 13.0605 12.4579L16.5 15.8974L21.879 10.5184H18Z" fill="#5C26B4"/>
</svg>
