<svg width="32" height="32" viewBox="0 0 32 32" fill="none" xmlns="http://www.w3.org/2000/svg">
<path d="M22.667 21.3333V24C22.667 24.7072 22.386 25.3855 21.8859 25.8856C21.3858 26.3857 20.7075 26.6667 20.0003 26.6667H6.66697C5.95973 26.6667 5.28145 26.3857 4.78135 25.8856C4.28126 25.3855 4.00031 24.7072 4.00031 24V14.6667C4.00031 13.9594 4.28126 13.2811 4.78135 12.781C5.28145 12.281 5.95973 12 6.66697 12H9.33364M13.3336 6.66667H12.0003C11.2931 6.66667 10.6148 6.94762 10.1147 7.44771C9.61459 7.94781 9.33364 8.62609 9.33364 9.33333V18.6667C9.33364 19.3739 9.61459 20.0522 10.1147 20.5523C10.6148 21.0524 11.2931 21.3333 12.0003 21.3333H25.3336C26.0409 21.3333 26.7192 21.0524 27.2193 20.5523C27.7194 20.0522 28.0003 19.3739 28.0003 18.6667V9.33333C28.0003 8.62609 27.7194 7.94781 27.2193 7.44771C26.7192 6.94762 26.0409 6.66667 25.3336 6.66667H24.0003M22.667 12L18.667 16M18.667 16L14.667 12M18.667 16V4" stroke="#8597A8" stroke-width="2" stroke-linecap="round" stroke-linejoin="round"/>
</svg>
