<svg width="30" height="30" viewBox="0 0 30 30" fill="none" xmlns="http://www.w3.org/2000/svg">
<path fill-rule="evenodd" clip-rule="evenodd" d="M12.0183 19.5C12.4161 19.5 12.7977 19.658 13.079 19.9393C13.3603 20.2206 13.5183 20.6022 13.5183 21C13.5183 21.3978 13.3603 21.7794 13.079 22.0607C12.7977 22.342 12.4161 22.5 12.0183 22.5H4.51831C4.12049 22.5 3.73895 22.342 3.45765 22.0607C3.17634 21.7794 3.01831 21.3978 3.01831 21V13.5C3.01831 13.1022 3.17634 12.7206 3.45765 12.4393C3.73895 12.158 4.12049 12 4.51831 12C4.91613 12 5.29767 12.158 5.57897 12.4393C5.86028 12.7206 6.01831 13.1022 6.01831 13.5V17.379L12.4578 10.9395C12.7391 10.6583 13.1206 10.5003 13.5183 10.5003C13.9161 10.5003 14.2975 10.6583 14.5788 10.9395L18.0183 14.379L24.4578 7.9395C24.7407 7.66626 25.1196 7.51507 25.5129 7.51849C25.9062 7.52191 26.2824 7.67966 26.5605 7.95777C26.8387 8.23589 26.9964 8.6121 26.9998 9.0054C27.0032 9.39869 26.852 9.7776 26.5788 10.0605L19.0788 17.5605C18.7975 17.8417 18.4161 17.9997 18.0183 17.9997C17.6206 17.9997 17.2391 17.8417 16.9578 17.5605L13.5183 14.121L8.13931 19.5H12.0183Z" fill="#5C26B4"/>
</svg>
