<svg width="32" height="32" viewBox="0 0 32 32" fill="none" xmlns="http://www.w3.org/2000/svg">
<path d="M5.33368 8.00001C5.33368 7.29277 5.61463 6.61449 6.11473 6.11439C6.61482 5.61429 7.2931 5.33334 8.00035 5.33334H10.667C11.3743 5.33334 12.0525 5.61429 12.5526 6.11439C13.0527 6.61449 13.3337 7.29277 13.3337 8.00001V10.6667C13.3337 11.3739 13.0527 12.0522 12.5526 12.5523C12.0525 13.0524 11.3743 13.3333 10.667 13.3333H8.00035C7.2931 13.3333 6.61482 13.0524 6.11473 12.5523C5.61463 12.0522 5.33368 11.3739 5.33368 10.6667V8.00001ZM18.667 8.00001C18.667 7.29277 18.948 6.61449 19.4481 6.11439C19.9482 5.61429 20.6264 5.33334 21.3337 5.33334H24.0003C24.7076 5.33334 25.3859 5.61429 25.886 6.11439C26.3861 6.61449 26.667 7.29277 26.667 8.00001V10.6667C26.667 11.3739 26.3861 12.0522 25.886 12.5523C25.3859 13.0524 24.7076 13.3333 24.0003 13.3333H21.3337C20.6264 13.3333 19.9482 13.0524 19.4481 12.5523C18.948 12.0522 18.667 11.3739 18.667 10.6667V8.00001ZM5.33368 21.3333C5.33368 20.6261 5.61463 19.9478 6.11473 19.4477C6.61482 18.9476 7.2931 18.6667 8.00035 18.6667H10.667C11.3743 18.6667 12.0525 18.9476 12.5526 19.4477C13.0527 19.9478 13.3337 20.6261 13.3337 21.3333V24C13.3337 24.7073 13.0527 25.3855 12.5526 25.8856C12.0525 26.3857 11.3743 26.6667 10.667 26.6667H8.00035C7.2931 26.6667 6.61482 26.3857 6.11473 25.8856C5.61463 25.3855 5.33368 24.7073 5.33368 24V21.3333ZM18.667 21.3333C18.667 20.6261 18.948 19.9478 19.4481 19.4477C19.9482 18.9476 20.6264 18.6667 21.3337 18.6667H24.0003C24.7076 18.6667 25.3859 18.9476 25.886 19.4477C26.3861 19.9478 26.667 20.6261 26.667 21.3333V24C26.667 24.7073 26.3861 25.3855 25.886 25.8856C25.3859 26.3857 24.7076 26.6667 24.0003 26.6667H21.3337C20.6264 26.6667 19.9482 26.3857 19.4481 25.8856C18.948 25.3855 18.667 24.7073 18.667 24V21.3333Z" stroke="#5B25B4" stroke-width="2" stroke-linecap="round" stroke-linejoin="round"/>
</svg>
