<svg width="26" height="26" viewBox="0 0 26 26" fill="none" xmlns="http://www.w3.org/2000/svg">
<path d="M21.6667 21.6667L17.3333 17.3333M19.5 11.9167C19.5 12.9125 19.3039 13.8986 18.9228 14.8187C18.5417 15.7387 17.9831 16.5747 17.2789 17.2789C16.5747 17.9831 15.7387 18.5417 14.8187 18.9228C13.8986 19.3039 12.9125 19.5 11.9167 19.5C10.9208 19.5 9.9347 19.3039 9.01465 18.9228C8.0946 18.5417 7.25862 17.9831 6.55444 17.2789C5.85026 16.5747 5.29168 15.7387 4.91058 14.8187C4.52948 13.8986 4.33334 12.9125 4.33334 11.9167C4.33334 9.90545 5.13229 7.9766 6.55444 6.55445C7.97659 5.1323 9.90544 4.33334 11.9167 4.33334C13.9279 4.33334 15.8567 5.1323 17.2789 6.55445C18.701 7.9766 19.5 9.90545 19.5 11.9167Z" stroke="#32383F" stroke-width="2" stroke-linecap="round" stroke-linejoin="round"/>
</svg>
