<svg width="32" height="32" viewBox="0 0 32 32" fill="none" xmlns="http://www.w3.org/2000/svg">
<path d="M21.3337 9.33333C21.3337 10.7478 20.7718 12.1044 19.7716 13.1046C18.7714 14.1048 17.4149 14.6667 16.0004 14.6667C14.5859 14.6667 13.2293 14.1048 12.2292 13.1046C11.229 12.1044 10.6671 10.7478 10.6671 9.33333C10.6671 7.91885 11.229 6.56229 12.2292 5.5621C13.2293 4.5619 14.5859 4 16.0004 4C17.4149 4 18.7714 4.5619 19.7716 5.5621C20.7718 6.56229 21.3337 7.91885 21.3337 9.33333V9.33333ZM16.0004 18.6667C13.525 18.6667 11.1511 19.65 9.40072 21.4003C7.65038 23.1507 6.66705 25.5246 6.66705 28H25.3337C25.3337 25.5246 24.3504 23.1507 22.6 21.4003C20.8497 19.65 18.4757 18.6667 16.0004 18.6667V18.6667Z" stroke="#8597A8" stroke-width="2" stroke-linecap="round" stroke-linejoin="round"/>
</svg>
