<svg width="258" height="255" viewBox="0 0 258 255" fill="none" xmlns="http://www.w3.org/2000/svg">
<path d="M202.452 254.636C207.064 251.049 211.504 247.136 215.742 242.898C271.046 187.594 270.936 97.8199 215.497 42.3809C160.059 -13.0579 70.2839 -13.1674 14.98 42.1365C9.54129 47.5752 4.63867 53.3471 0.271477 59.3875C11.1788 57.7016 22.8697 60.4029 32.0097 66.8085C41.8989 73.739 47.5073 83.417 50.1666 93.6826C52.4564 90.6292 54.9899 87.7006 57.7671 84.9235C89.4976 53.1929 141.007 53.2557 172.815 85.0637C204.623 116.872 204.685 168.381 172.955 200.111C170.863 202.203 168.684 204.157 166.432 205.973C176.785 208.272 186.655 213.539 193.927 223.184C200.645 232.093 203.752 243.678 202.452 254.636Z" fill="url(#paint0_linear_103_5)" fill-opacity="0.2"/>
<defs>
<linearGradient id="paint0_linear_103_5" x1="316" y1="-167" x2="99.3811" y2="158.497" gradientUnits="userSpaceOnUse">
<stop stop-color="#8E25B4"/>
<stop offset="1" stop-color="white" stop-opacity="0"/>
</linearGradient>
</defs>
</svg>
