<svg width="258" height="255" viewBox="0 0 258 255" fill="none" xmlns="http://www.w3.org/2000/svg">
<path d="M202.452 0.242314C207.064 3.82928 211.504 7.74199 215.742 11.9798C271.045 67.2836 270.936 157.058 215.497 212.497C160.058 267.936 70.2836 268.045 14.9798 212.742C9.54104 207.303 4.63843 201.531 0.271233 195.491C11.1785 197.176 22.8694 194.475 32.0094 188.069C41.8986 181.139 47.5071 171.461 50.1663 161.195C52.4562 164.249 54.9897 167.177 57.7668 169.955C89.4974 201.685 141.006 201.622 172.814 169.814C204.622 138.006 204.685 86.4974 172.955 54.7668C170.862 52.6746 168.684 50.7209 166.431 48.9049C176.785 46.6064 186.655 41.3388 193.927 31.6944C200.645 22.7853 203.752 11.1997 202.452 0.242314Z" fill="url(#paint0_linear_103_6)" fill-opacity="0.2"/>
<defs>
<linearGradient id="paint0_linear_103_6" x1="540" y1="-56.5" x2="68.5" y2="241.5" gradientUnits="userSpaceOnUse">
<stop stop-color="#8E25B4"/>
<stop offset="1" stop-color="white" stop-opacity="0"/>
</linearGradient>
</defs>
</svg>
