<svg width="33" height="16" viewBox="0 0 33 16" fill="none" xmlns="http://www.w3.org/2000/svg">
<path d="M3.16706 0.851019C1.17262 1.20271 -0.194472 3.12931 0.571133 5.00429C1.64001 7.62188 3.34526 9.95408 5.556 11.7765C8.71719 14.3823 12.7044 15.7747 16.8005 15.7033C20.8967 15.6318 24.8329 14.101 27.9013 11.3864C30.047 9.48803 31.6698 7.09767 32.6468 4.44441C33.3465 2.54385 31.9129 0.666113 29.9074 0.38428C27.902 0.102448 26.1013 1.5622 25.1107 3.32867C24.5738 4.28612 23.8767 5.15478 23.0417 5.8936C21.2812 7.45119 19.0227 8.32938 16.6726 8.37045C14.3224 8.4114 12.0347 7.61259 10.221 6.1174C9.36057 5.40817 8.63368 4.56439 8.06362 3.62621C7.012 1.89542 5.16151 0.499331 3.16706 0.851019Z" fill="#5B25B4"/>
</svg>
